<svg xmlns="http://www.w3.org/2000/svg" xmlns:xlink="http://www.w3.org/1999/xlink" width="232" height="222" viewBox="0 0 232 222">
  <defs>
    <linearGradient id="linear-gradient" x1="0.481" y1="0.255" x2="0.265" y2="0.192" gradientUnits="objectBoundingBox">
      <stop offset="0" stop-color="#cc9a00"/>
      <stop offset="1" stop-color="purple"/>
    </linearGradient>
    <linearGradient id="linear-gradient-2" x1="0.656" y1="0.297" x2="0.268" y2="0.127" gradientUnits="objectBoundingBox">
      <stop offset="0" stop-color="#00827c"/>
      <stop offset="1" stop-color="#cc9a00"/>
    </linearGradient>
    <linearGradient id="linear-gradient-3" x1="0.506" y1="0.27" x2="0.235" y2="0.223" gradientUnits="objectBoundingBox">
      <stop offset="0" stop-color="purple"/>
      <stop offset="1" stop-color="#2e61a0"/>
    </linearGradient>
    <linearGradient id="linear-gradient-4" x1="0.488" y1="0.455" x2="0.085" y2="0.247" gradientUnits="objectBoundingBox">
      <stop offset="0" stop-color="#01006e"/>
      <stop offset="1" stop-color="#00827c"/>
    </linearGradient>
    <linearGradient id="linear-gradient-5" x1="0.48" y1="0.152" x2="0.099" y2="0.141" gradientUnits="objectBoundingBox">
      <stop offset="0" stop-color="#2e61a0"/>
      <stop offset="1" stop-color="#010c6f"/>
    </linearGradient>
    <clipPath id="clip-auff_unna_logo_transparent">
      <rect width="232" height="222"/>
    </clipPath>
  </defs>
  <g id="auff_unna_logo_transparent" clip-path="url(#clip-auff_unna_logo_transparent)">
    <g id="Group_26" data-name="Group 26" transform="translate(-126 -87)">
      <path id="Path_8" data-name="Path 8" d="M34.221-12.2c-6.206,0-10.861-4.4-10.861-11.8V-57.035L23.091-72.3,10.063-67.985,7.4-52.027V-24.9C7.4-6.7,20.256,1,34.221,1,48.3,1,61.152-6.7,61.152-24.9V-48.117l.213-13.53L50.98-65.659,45.193-53.777V-24C45.193-16.6,40.538-12.2,34.221-12.2Z" transform="matrix(0.292, -0.956, 0.956, 0.292, 316.188, 247.594)" fill="url(#linear-gradient)"/>
      <path id="Path_8-2" data-name="Path 8" d="M34.221-12.2c-6.206,0-10.861-4.4-10.861-11.8l-.85-50.118L7.37-69.3,7.4-24.9C7.4-6.7,20.256,1,34.221,1,48.3,1,61.152-6.7,61.152-24.9V-51.521L59.825-65.8l-8.068-.663-6.558,9.2L45.193-24C45.193-16.6,40.538-12.2,34.221-12.2Z" transform="matrix(-0.819, -0.574, 0.574, -0.819, 323.558, 136.016)" fill="url(#linear-gradient-2)"/>
      <path id="Path_8-3" data-name="Path 8" d="M34.221-12.2c-6.206,0-10.861-4.4-10.861-11.8V-60.053l-2.8-8.613L7.4-70v45.1C7.4-6.7,20.256,1,34.221,1,48.3,1,61.152-6.7,61.152-24.9l-.529-44.792-14.58-3.056L45.193-24C45.193-16.6,40.538-12.2,34.221-12.2Z" transform="matrix(1, -0.017, 0.017, 1, 209.107, 279.309)" fill="url(#linear-gradient-3)"/>
      <g id="Group_15" data-name="Group 15" transform="translate(108.802 -199.29) rotate(71)">
        <path id="Path_8-4" data-name="Path 8" d="M34.221-12.2c-6.206,0-10.861-4.4-10.861-11.8V-70L7.346-70.419,7.4-24.9C7.4-6.7,20.256,1,34.221,1,48.3,1,61.152-6.7,61.152-24.9l-.029-44.915L45.193-70v46C45.193-16.6,40.538-12.2,34.221-12.2Z" transform="translate(374 90)" fill="#2e61a0"/>
      </g>
      <path id="Path_8-5" data-name="Path 8" d="M34.221-12.2c-6.206,0-10.861-4.4-10.861-11.8l0-50.424L7.4-70v45.1C7.4-6.7,20.256,1,34.221,1,48.3,1,61.152-6.7,61.152-24.9V-48.987L58.323-64.41l-9.685,5.231-3.476,4.286L45.193-24C45.193-16.6,40.538-12.2,34.221-12.2Z" transform="matrix(-0.799, 0.602, -0.602, -0.799, 217.489, 96.635)" fill="url(#linear-gradient-4)"/>
      <g id="Group_22" data-name="Group 22" transform="translate(108.802 -199.29) rotate(71)">
        <path id="Path_8-6" data-name="Path 8" d="M34.221-12.2c-6.206,0-10.861-4.4-10.861-11.8l1.484-51.56-17.5,5.141L7.4-24.9C7.4-6.7,20.256,1,34.221,1,48.3,1,61.152-6.7,61.152-24.9l-.029-44.915L45.211-75.144,45.193-24C45.193-16.6,40.538-12.2,34.221-12.2Z" transform="translate(374 90)" fill="url(#linear-gradient-5)"/>
      </g>
      <ellipse id="Ellipse_8" data-name="Ellipse 8" cx="10" cy="10.5" rx="10" ry="10.5" transform="matrix(0.292, -0.956, 0.956, 0.292, 331.058, 226.321)" fill="#cc9a00"/>
      <ellipse id="Ellipse_8-2" data-name="Ellipse 8" cx="10" cy="10.5" rx="10" ry="10.5" transform="matrix(-0.819, -0.574, 0.574, -0.819, 307.921, 115.301)" fill="#00827c"/>
      <ellipse id="Ellipse_8-3" data-name="Ellipse 8" cx="10" cy="10.5" rx="10" ry="10.5" transform="matrix(1, -0.017, 0.017, 1, 233.933, 286.877)" fill="purple"/>
      <ellipse id="Ellipse_8-4" data-name="Ellipse 8" cx="10" cy="10.5" rx="10" ry="10.5" transform="matrix(-0.799, 0.602, -0.602, -0.799, 192.956, 105.104)" fill="#01006e"/>
      <ellipse id="Ellipse_8-5" data-name="Ellipse 8" cx="10" cy="10.5" rx="10" ry="10.5" transform="translate(145.942 209.585) rotate(71)" fill="#2e61a0"/>
    </g>
  </g>
</svg>
